<svg id="Livello_1" data-name="Livello 1" xmlns="http://www.w3.org/2000/svg" viewBox="0 0 419.44 20.77">
  <defs>
    <style>
      .cls-1 {
        fill: #044d9a;
        font-family: -apple-system,system-ui,BlinkMacSystemFont,"Segoe UI",Roboto,"Helvetica Neue",Arial,sans-serif;
      }
    </style>
  </defs>
  <title>modulo-adesione:Directa Sim</title>
  <g>
    <path class="cls-1" d="M31.5,25.3q-.26-.63-.7-1.61l-.93-2.11q-.5-1.13-1.07-2.33L27.73,17q-.5-1.07-.93-1.91t-.7-1.29q-.29,3.11-.47,6.73t-.32,7.31h-2.5q.1-2.37.24-4.78t.3-4.74q.17-2.33.37-4.54t.43-4.19h2.24q.71,1.16,1.53,2.74t1.63,3.3q.82,1.72,1.58,3.45l1.4,3.15,1.4-3.15q.76-1.72,1.58-3.45t1.63-3.3q.82-1.58,1.53-2.74h2.24q.89,8.82,1.34,18.25h-2.5q-.13-3.69-.32-7.31t-.47-6.73q-.26.45-.7,1.29T37.31,17l-1.07,2.26q-.57,1.2-1.07,2.33l-.93,2.11q-.43,1-.7,1.61Z" transform="translate(-22.81 -7.4)"/>
    <path class="cls-1" d="M58.17,21a8.66,8.66,0,0,1-.47,2.95,6.75,6.75,0,0,1-1.33,2.26,5.85,5.85,0,0,1-2,1.46,6.74,6.74,0,0,1-5.16,0,5.85,5.85,0,0,1-2-1.46,6.74,6.74,0,0,1-1.33-2.26A8.66,8.66,0,0,1,45.32,21,8.69,8.69,0,0,1,45.79,18a6.72,6.72,0,0,1,1.33-2.28,5.85,5.85,0,0,1,2-1.46,6.74,6.74,0,0,1,5.16,0,5.85,5.85,0,0,1,2,1.46A6.73,6.73,0,0,1,57.69,18,8.69,8.69,0,0,1,58.17,21Zm-2.55,0a5.89,5.89,0,0,0-1-3.67,3.63,3.63,0,0,0-5.66,0,5.89,5.89,0,0,0-1,3.67,5.89,5.89,0,0,0,1,3.67,3.63,3.63,0,0,0,5.66,0A5.89,5.89,0,0,0,55.61,21Z" transform="translate(-22.81 -7.4)"/>
    <path class="cls-1" d="M70.46,7.82l2.45-.42v20q-.84.24-2.16.47a17.26,17.26,0,0,1-3,.24,7.68,7.68,0,0,1-2.84-.5,6.09,6.09,0,0,1-2.16-1.42A6.28,6.28,0,0,1,61.34,24a8.64,8.64,0,0,1-.49-3,9.73,9.73,0,0,1,.41-2.9,6.49,6.49,0,0,1,1.2-2.26,5.44,5.44,0,0,1,1.94-1.47A6.2,6.2,0,0,1,67,13.82a6.36,6.36,0,0,1,2.09.32,6.63,6.63,0,0,1,1.36.61Zm0,9.21a5.06,5.06,0,0,0-1.29-.71A4.86,4.86,0,0,0,67.33,16a4,4,0,0,0-1.8.38,3.32,3.32,0,0,0-1.22,1.05A4.45,4.45,0,0,0,63.61,19a8.84,8.84,0,0,0-.21,2,5.31,5.31,0,0,0,1.18,3.7A4.06,4.06,0,0,0,67.75,26a12.6,12.6,0,0,0,1.67-.09,7.93,7.93,0,0,0,1-.2Z" transform="translate(-22.81 -7.4)"/>
    <path class="cls-1" d="M88,27.44q-.84.21-2.22.45a19.15,19.15,0,0,1-3.2.24,6.79,6.79,0,0,1-2.66-.46,4.29,4.29,0,0,1-1.74-1.3,5.29,5.29,0,0,1-.95-2A10.35,10.35,0,0,1,77,21.83V14.14h2.45V21.3a6.21,6.21,0,0,0,.79,3.58A3.08,3.08,0,0,0,82.86,26l.82,0,.79-.07.67-.08a2,2,0,0,0,.43-.09V14.14H88Z" transform="translate(-22.81 -7.4)"/>
    <path class="cls-1" d="M96.34,28.09a4.69,4.69,0,0,1-3.21-1,3.85,3.85,0,0,1-.95-2.87V7.82l2.45-.42V23.85a4,4,0,0,0,.11,1,1.37,1.37,0,0,0,.34.63,1.47,1.47,0,0,0,.63.36,6.5,6.5,0,0,0,1,.2Z" transform="translate(-22.81 -7.4)"/>
    <path class="cls-1" d="M111.5,21a8.66,8.66,0,0,1-.47,2.95,6.75,6.75,0,0,1-1.33,2.26,5.85,5.85,0,0,1-2,1.46,6.74,6.74,0,0,1-5.16,0,5.85,5.85,0,0,1-2-1.46,6.74,6.74,0,0,1-1.33-2.26A8.66,8.66,0,0,1,98.66,21,8.69,8.69,0,0,1,99.13,18a6.72,6.72,0,0,1,1.33-2.28,5.85,5.85,0,0,1,2-1.46,6.74,6.74,0,0,1,5.16,0,5.85,5.85,0,0,1,2,1.46A6.73,6.73,0,0,1,111,18,8.69,8.69,0,0,1,111.5,21ZM109,21a5.89,5.89,0,0,0-1-3.67,3.63,3.63,0,0,0-5.66,0,5.89,5.89,0,0,0-1,3.67,5.89,5.89,0,0,0,1,3.67,3.63,3.63,0,0,0,5.66,0A5.89,5.89,0,0,0,109,21Z" transform="translate(-22.81 -7.4)"/>
    <path class="cls-1" d="M129.88,7.82l2.45-.42v20q-.84.24-2.16.47a17.26,17.26,0,0,1-3,.24,7.68,7.68,0,0,1-2.84-.5,6.09,6.09,0,0,1-2.16-1.42A6.28,6.28,0,0,1,120.76,24a8.64,8.64,0,0,1-.49-3,9.73,9.73,0,0,1,.41-2.9,6.49,6.49,0,0,1,1.2-2.26,5.44,5.44,0,0,1,1.94-1.47,6.2,6.2,0,0,1,2.62-.53,6.36,6.36,0,0,1,2.09.32,6.63,6.63,0,0,1,1.36.61Zm0,9.21a5.06,5.06,0,0,0-1.29-.71,4.86,4.86,0,0,0-1.84-.34,4,4,0,0,0-1.8.38,3.32,3.32,0,0,0-1.22,1.05A4.45,4.45,0,0,0,123,19a8.84,8.84,0,0,0-.21,2,5.31,5.31,0,0,0,1.18,3.7,4.06,4.06,0,0,0,3.16,1.3,12.6,12.6,0,0,0,1.67-.09,7.93,7.93,0,0,0,1-.2Z" transform="translate(-22.81 -7.4)"/>
    <path class="cls-1" d="M137.75,11.67a1.57,1.57,0,0,1-1.12-.43,1.53,1.53,0,0,1-.46-1.17,1.53,1.53,0,0,1,.46-1.17,1.66,1.66,0,0,1,2.24,0,1.54,1.54,0,0,1,.46,1.17,1.53,1.53,0,0,1-.46,1.17A1.57,1.57,0,0,1,137.75,11.67ZM139,27.83h-2.45V14.14H139Z" transform="translate(-22.81 -7.4)"/>
    <path class="cls-1" d="M153.71,13.8a7.1,7.1,0,0,1,2.49.38,4,4,0,0,1,1.63,1.08,4.09,4.09,0,0,1,.88,1.66A8,8,0,0,1,159,19v8.56l-.88.14q-.57.09-1.28.17l-1.54.14q-.83.07-1.65.07a9,9,0,0,1-2.13-.24,4.77,4.77,0,0,1-1.69-.75,3.43,3.43,0,0,1-1.11-1.36,4.75,4.75,0,0,1-.39-2,3.9,3.9,0,0,1,.46-1.95A3.67,3.67,0,0,1,150,20.49a5.78,5.78,0,0,1,1.84-.74,10,10,0,0,1,2.21-.24q.37,0,.76,0c.26,0,.51.06.75.1l.62.12.37.08v-.68a5.5,5.5,0,0,0-.13-1.2,2.74,2.74,0,0,0-.47-1.05,2.4,2.4,0,0,0-.93-.74,3.67,3.67,0,0,0-1.54-.28,11.6,11.6,0,0,0-2.12.17,7.45,7.45,0,0,0-1.36.36l-.29-2a7.55,7.55,0,0,1,1.58-.41A13.62,13.62,0,0,1,153.71,13.8Zm.21,12.27q.87,0,1.54,0a6.72,6.72,0,0,0,1.12-.15V21.8a3.16,3.16,0,0,0-.86-.22,9.58,9.58,0,0,0-1.44-.09,9.24,9.24,0,0,0-1.17.08,3.62,3.62,0,0,0-1.13.33,2.43,2.43,0,0,0-.86.68,1.8,1.8,0,0,0-.34,1.15,2,2,0,0,0,.84,1.83A4.38,4.38,0,0,0,153.92,26.07Z" transform="translate(-22.81 -7.4)"/>
    <path class="cls-1" d="M171.87,7.82l2.45-.42v20q-.84.24-2.16.47a17.26,17.26,0,0,1-3,.24,7.68,7.68,0,0,1-2.84-.5,6.09,6.09,0,0,1-2.16-1.42A6.28,6.28,0,0,1,162.75,24a8.64,8.64,0,0,1-.49-3,9.73,9.73,0,0,1,.41-2.9,6.49,6.49,0,0,1,1.2-2.26,5.44,5.44,0,0,1,1.94-1.47,6.2,6.2,0,0,1,2.62-.53,6.36,6.36,0,0,1,2.09.32,6.63,6.63,0,0,1,1.36.61Zm0,9.21a5.06,5.06,0,0,0-1.29-.71,4.86,4.86,0,0,0-1.84-.34,4,4,0,0,0-1.8.38,3.32,3.32,0,0,0-1.22,1.05A4.45,4.45,0,0,0,165,19a8.84,8.84,0,0,0-.21,2,5.31,5.31,0,0,0,1.18,3.7,4.06,4.06,0,0,0,3.16,1.3,12.6,12.6,0,0,0,1.67-.09,7.93,7.93,0,0,0,1-.2Z" transform="translate(-22.81 -7.4)"/>
    <path class="cls-1" d="M177.77,21a8.74,8.74,0,0,1,.53-3.17,6.63,6.63,0,0,1,1.4-2.25,5.67,5.67,0,0,1,2-1.34A6.25,6.25,0,0,1,184,13.8a5.27,5.27,0,0,1,4.24,1.72,7.93,7.93,0,0,1,1.47,5.25v.41a3.81,3.81,0,0,1,0,.46h-9.37a5,5,0,0,0,1.24,3.24A4.53,4.53,0,0,0,184.93,26a9,9,0,0,0,2.17-.22,7.81,7.81,0,0,0,1.33-.43l.34,2.05a7.26,7.26,0,0,1-1.57.5,11.15,11.15,0,0,1-2.54.26,8.07,8.07,0,0,1-3.09-.54,5.77,5.77,0,0,1-2.15-1.49,6.05,6.05,0,0,1-1.25-2.25A9.51,9.51,0,0,1,177.77,21Zm9.4-1.34a4.11,4.11,0,0,0-.83-2.72A2.85,2.85,0,0,0,184,15.88a3.23,3.23,0,0,0-1.49.33,3.51,3.51,0,0,0-1.09.86,3.93,3.93,0,0,0-.7,1.21,6,6,0,0,0-.33,1.4Z" transform="translate(-22.81 -7.4)"/>
    <path class="cls-1" d="M196.43,26.07a4.82,4.82,0,0,0,2.22-.39,1.34,1.34,0,0,0,.72-1.26,1.68,1.68,0,0,0-.71-1.42,11.29,11.29,0,0,0-2.34-1.18q-.79-.32-1.51-.65a5.28,5.28,0,0,1-1.25-.78,3.38,3.38,0,0,1-.84-1.08,3.45,3.45,0,0,1-.32-1.55,3.49,3.49,0,0,1,1.34-2.88,5.73,5.73,0,0,1,3.66-1.07,10.35,10.35,0,0,1,1.16.07q.58.07,1.08.16t.88.2l.59.18-.45,2.11a6.23,6.23,0,0,0-1.24-.43,8,8,0,0,0-2-.22,3.74,3.74,0,0,0-1.79.41,1.35,1.35,0,0,0-.76,1.28,1.74,1.74,0,0,0,.17.79,1.82,1.82,0,0,0,.53.62,4.33,4.33,0,0,0,.88.51q.53.24,1.26.5,1,.37,1.74.72a5.43,5.43,0,0,1,1.3.83,3.19,3.19,0,0,1,.83,1.15,4.16,4.16,0,0,1,.29,1.65,3.26,3.26,0,0,1-1.41,2.87,7,7,0,0,1-4,1,10.5,10.5,0,0,1-2.84-.3q-1-.3-1.4-.46l.45-2.11,1.34.47A7.74,7.74,0,0,0,196.43,26.07Z" transform="translate(-22.81 -7.4)"/>
    <path class="cls-1" d="M206.2,11.67a1.57,1.57,0,0,1-1.12-.43,1.53,1.53,0,0,1-.46-1.17,1.53,1.53,0,0,1,.46-1.17,1.66,1.66,0,0,1,2.24,0,1.54,1.54,0,0,1,.46,1.17,1.53,1.53,0,0,1-.46,1.17A1.57,1.57,0,0,1,206.2,11.67Zm1.24,16.17H205V14.14h2.45Z" transform="translate(-22.81 -7.4)"/>
    <path class="cls-1" d="M223.74,21a8.66,8.66,0,0,1-.47,2.95,6.75,6.75,0,0,1-1.33,2.26,5.85,5.85,0,0,1-2,1.46,6.74,6.74,0,0,1-5.16,0,5.85,5.85,0,0,1-2-1.46,6.74,6.74,0,0,1-1.33-2.26,8.66,8.66,0,0,1-.47-2.95,8.69,8.69,0,0,1,.47-2.94,6.72,6.72,0,0,1,1.33-2.28,5.85,5.85,0,0,1,2-1.46,6.74,6.74,0,0,1,5.16,0,5.85,5.85,0,0,1,2,1.46A6.73,6.73,0,0,1,223.26,18,8.69,8.69,0,0,1,223.74,21Zm-2.55,0a5.89,5.89,0,0,0-1-3.67,3.63,3.63,0,0,0-5.66,0,5.89,5.89,0,0,0-1,3.67,5.89,5.89,0,0,0,1,3.67,3.63,3.63,0,0,0,5.66,0A5.89,5.89,0,0,0,221.18,21Z" transform="translate(-22.81 -7.4)"/>
    <path class="cls-1" d="M227.19,14.54q.84-.21,2.24-.45a19.37,19.37,0,0,1,3.21-.24,6.94,6.94,0,0,1,2.71.46,4.26,4.26,0,0,1,1.72,1.29,5,5,0,0,1,.91,2,11.52,11.52,0,0,1,.26,2.55v7.69h-2.45V20.67a11.58,11.58,0,0,0-.17-2.16,3.66,3.66,0,0,0-.56-1.45,2.24,2.24,0,0,0-1.05-.8,4.61,4.61,0,0,0-1.63-.25l-.82,0-.8.07-.69.09-.43.08V27.83h-2.45Z" transform="translate(-22.81 -7.4)"/>
    <path class="cls-1" d="M241.53,21a8.73,8.73,0,0,1,.53-3.17,6.62,6.62,0,0,1,1.4-2.25,5.67,5.67,0,0,1,2-1.34,6.25,6.25,0,0,1,2.32-.45A5.27,5.27,0,0,1,252,15.52a7.93,7.93,0,0,1,1.47,5.25v.41a3.92,3.92,0,0,1,0,.46h-9.37a5,5,0,0,0,1.24,3.24A4.53,4.53,0,0,0,248.69,26a9,9,0,0,0,2.17-.22,7.77,7.77,0,0,0,1.33-.43l.34,2.05a7.25,7.25,0,0,1-1.57.5,11.15,11.15,0,0,1-2.54.26,8.06,8.06,0,0,1-3.09-.54,5.77,5.77,0,0,1-2.15-1.49,6.06,6.06,0,0,1-1.25-2.25A9.51,9.51,0,0,1,241.53,21Zm9.4-1.34a4.11,4.11,0,0,0-.83-2.72,2.85,2.85,0,0,0-2.36-1.07,3.23,3.23,0,0,0-1.49.33,3.53,3.53,0,0,0-1.09.86,4,4,0,0,0-.7,1.21,6,6,0,0,0-.33,1.4Z" transform="translate(-22.81 -7.4)"/>
    <path class="cls-1" d="M259.91,15.9a1.79,1.79,0,0,1-.47,1.24,1.84,1.84,0,0,1-2.58,0,1.85,1.85,0,0,1,0-2.47,1.84,1.84,0,0,1,2.58,0A1.79,1.79,0,0,1,259.91,15.9Zm0,10.5a1.79,1.79,0,0,1-.47,1.24,1.84,1.84,0,0,1-2.58,0,1.85,1.85,0,0,1,0-2.48,1.84,1.84,0,0,1,2.58,0A1.79,1.79,0,0,1,259.91,26.41Z" transform="translate(-22.81 -7.4)"/>
    <path class="cls-1" d="M278.42,7.82l2.45-.42v20q-.84.24-2.16.47a17.27,17.27,0,0,1-3,.24,7.68,7.68,0,0,1-2.84-.5,6.09,6.09,0,0,1-2.16-1.42A6.28,6.28,0,0,1,269.29,24a8.63,8.63,0,0,1-.49-3,9.73,9.73,0,0,1,.41-2.9,6.49,6.49,0,0,1,1.2-2.26,5.45,5.45,0,0,1,1.94-1.47,6.21,6.21,0,0,1,2.62-.53,6.37,6.37,0,0,1,2.09.32,6.65,6.65,0,0,1,1.36.61Zm0,9.21a5.06,5.06,0,0,0-1.29-.71,4.86,4.86,0,0,0-1.84-.34,3.94,3.94,0,0,0-1.8.38,3.31,3.31,0,0,0-1.22,1.05,4.43,4.43,0,0,0-.68,1.59,8.84,8.84,0,0,0-.21,2,5.31,5.31,0,0,0,1.18,3.7,4.06,4.06,0,0,0,3.16,1.3,12.6,12.6,0,0,0,1.67-.09,7.92,7.92,0,0,0,1-.2Z" transform="translate(-22.81 -7.4)"/>
    <path class="cls-1" d="M286.29,11.67a1.57,1.57,0,0,1-1.12-.43,1.53,1.53,0,0,1-.46-1.17,1.53,1.53,0,0,1,.46-1.17,1.66,1.66,0,0,1,2.24,0,1.54,1.54,0,0,1,.46,1.17,1.53,1.53,0,0,1-.46,1.17A1.57,1.57,0,0,1,286.29,11.67Zm1.24,16.17h-2.45V14.14h2.45Z" transform="translate(-22.81 -7.4)"/>
    <path class="cls-1" d="M302.43,14.14A68.88,68.88,0,0,1,300,21.51q-1.38,3.53-2.67,6.32h-2.21q-1.29-2.79-2.67-6.32a69.1,69.1,0,0,1-2.41-7.37h2.63q.32,1.29.75,2.75t.92,2.9q.49,1.43,1,2.78t.95,2.4q.45-1.05.95-2.4t1-2.78q.49-1.43.92-2.9t.75-2.75Z" transform="translate(-22.81 -7.4)"/>
    <path class="cls-1" d="M303.82,21a8.73,8.73,0,0,1,.53-3.17,6.62,6.62,0,0,1,1.4-2.25,5.67,5.67,0,0,1,2-1.34,6.25,6.25,0,0,1,2.32-.45,5.27,5.27,0,0,1,4.24,1.72,7.93,7.93,0,0,1,1.47,5.25v.41a3.92,3.92,0,0,1,0,.46h-9.37a5,5,0,0,0,1.24,3.24A4.53,4.53,0,0,0,311,26a9,9,0,0,0,2.17-.22,7.77,7.77,0,0,0,1.33-.43l.34,2.05a7.25,7.25,0,0,1-1.57.5,11.15,11.15,0,0,1-2.54.26,8.06,8.06,0,0,1-3.09-.54,5.77,5.77,0,0,1-2.15-1.49,6.06,6.06,0,0,1-1.25-2.25A9.51,9.51,0,0,1,303.82,21Zm9.4-1.34a4.11,4.11,0,0,0-.83-2.72A2.85,2.85,0,0,0,310,15.88a3.23,3.23,0,0,0-1.49.33,3.53,3.53,0,0,0-1.09.86,4,4,0,0,0-.7,1.21,6,6,0,0,0-.33,1.4Z" transform="translate(-22.81 -7.4)"/>
    <path class="cls-1" d="M319.3,14.54q.84-.21,2.24-.45a19.39,19.39,0,0,1,3.21-.24,6.94,6.94,0,0,1,2.71.46,4.24,4.24,0,0,1,1.72,1.29,5,5,0,0,1,.91,2,11.52,11.52,0,0,1,.26,2.55v7.69h-2.45V20.67a11.67,11.67,0,0,0-.17-2.16,3.66,3.66,0,0,0-.57-1.45,2.25,2.25,0,0,0-1.05-.8,4.62,4.62,0,0,0-1.63-.25l-.82,0-.8.07-.68.09-.43.08V27.83H319.3Z" transform="translate(-22.81 -7.4)"/>
    <path class="cls-1" d="M336.71,14.14h5.19v2.05h-5.19v6.32a7.58,7.58,0,0,0,.16,1.7,2.56,2.56,0,0,0,.47,1.05,1.71,1.71,0,0,0,.79.54,3.5,3.5,0,0,0,1.11.16,5.19,5.19,0,0,0,1.78-.25l.93-.36.47,2a9,9,0,0,1-1.29.46,7.34,7.34,0,0,1-2.11.28,6.39,6.39,0,0,1-2.3-.36,3.36,3.36,0,0,1-1.46-1.07,4.28,4.28,0,0,1-.78-1.75,11.53,11.53,0,0,1-.22-2.41V10.32l2.45-.42Z" transform="translate(-22.81 -7.4)"/>
    <path class="cls-1" d="M349.42,13.8a7.11,7.11,0,0,1,2.49.38,4,4,0,0,1,1.63,1.08,4.1,4.1,0,0,1,.88,1.66,8,8,0,0,1,.26,2.12v8.56l-.88.14q-.57.09-1.28.17l-1.54.14q-.83.07-1.65.07a9,9,0,0,1-2.13-.24,4.77,4.77,0,0,1-1.68-.75,3.43,3.43,0,0,1-1.11-1.36,4.74,4.74,0,0,1-.4-2,3.9,3.9,0,0,1,.46-1.95,3.66,3.66,0,0,1,1.25-1.32,5.78,5.78,0,0,1,1.84-.74,10,10,0,0,1,2.21-.24q.37,0,.76,0c.26,0,.51.06.75.1l.62.12.37.08v-.68a5.56,5.56,0,0,0-.13-1.2,2.74,2.74,0,0,0-.47-1.05,2.39,2.39,0,0,0-.93-.74,3.67,3.67,0,0,0-1.54-.28,11.59,11.59,0,0,0-2.12.17,7.43,7.43,0,0,0-1.36.36l-.29-2A7.56,7.56,0,0,1,347,14,13.61,13.61,0,0,1,349.42,13.8Zm.21,12.27q.87,0,1.54,0a6.73,6.73,0,0,0,1.12-.15V21.8a3.16,3.16,0,0,0-.86-.22,9.57,9.57,0,0,0-1.43-.09,9.26,9.26,0,0,0-1.17.08,3.62,3.62,0,0,0-1.13.33,2.43,2.43,0,0,0-.86.68,1.8,1.8,0,0,0-.34,1.15,2,2,0,0,0,.84,1.83A4.39,4.39,0,0,0,349.63,26.07Z" transform="translate(-22.81 -7.4)"/>
    <path class="cls-1" d="M370.77,28.15a7.45,7.45,0,0,1-2.91-.53,5.85,5.85,0,0,1-2.11-1.47,6.13,6.13,0,0,1-1.28-2.25,9.35,9.35,0,0,1-.42-2.88,8.7,8.7,0,0,1,.46-2.9,6.84,6.84,0,0,1,1.3-2.28,5.84,5.84,0,0,1,2.07-1.5,6.68,6.68,0,0,1,2.72-.54,10.87,10.87,0,0,1,1.84.16,8.49,8.49,0,0,1,1.76.5l-.55,2.08a5.9,5.9,0,0,0-1.28-.42,7.22,7.22,0,0,0-1.54-.16,3.89,3.89,0,0,0-3.15,1.29A5.68,5.68,0,0,0,366.61,21a7.72,7.72,0,0,0,.25,2,4.18,4.18,0,0,0,.79,1.58,3.52,3.52,0,0,0,1.38,1,5.28,5.28,0,0,0,2.05.36,7.76,7.76,0,0,0,1.76-.18,6.35,6.35,0,0,0,1.24-.4l.34,2.05a2.56,2.56,0,0,1-.61.25,8.66,8.66,0,0,1-.9.21q-.5.09-1.07.16A9.44,9.44,0,0,1,370.77,28.15Z" transform="translate(-22.81 -7.4)"/>
    <path class="cls-1" d="M381.17,28.09a4.69,4.69,0,0,1-3.21-1,3.85,3.85,0,0,1-.95-2.87V7.82l2.45-.42V23.85a4,4,0,0,0,.11,1,1.38,1.38,0,0,0,.34.63,1.48,1.48,0,0,0,.63.36,6.51,6.51,0,0,0,1,.2Z" transform="translate(-22.81 -7.4)"/>
    <path class="cls-1" d="M385.46,11.67a1.57,1.57,0,0,1-1.12-.43,1.53,1.53,0,0,1-.46-1.17,1.53,1.53,0,0,1,.46-1.17,1.66,1.66,0,0,1,2.24,0,1.54,1.54,0,0,1,.46,1.17,1.53,1.53,0,0,1-.46,1.17A1.57,1.57,0,0,1,385.46,11.67Zm1.24,16.17h-2.45V14.14h2.45Z" transform="translate(-22.81 -7.4)"/>
    <path class="cls-1" d="M390.15,21a8.73,8.73,0,0,1,.53-3.17,6.62,6.62,0,0,1,1.4-2.25,5.67,5.67,0,0,1,2-1.34,6.25,6.25,0,0,1,2.32-.45,5.27,5.27,0,0,1,4.24,1.72,7.93,7.93,0,0,1,1.47,5.25v.41a3.92,3.92,0,0,1,0,.46H392.7a5,5,0,0,0,1.24,3.24A4.53,4.53,0,0,0,397.31,26a9,9,0,0,0,2.17-.22,7.77,7.77,0,0,0,1.33-.43l.34,2.05a7.25,7.25,0,0,1-1.57.5,11.15,11.15,0,0,1-2.54.26,8.06,8.06,0,0,1-3.09-.54,5.77,5.77,0,0,1-2.15-1.49,6.06,6.06,0,0,1-1.25-2.25A9.51,9.51,0,0,1,390.15,21Zm9.4-1.34a4.11,4.11,0,0,0-.83-2.72,2.85,2.85,0,0,0-2.36-1.07,3.23,3.23,0,0,0-1.49.33,3.53,3.53,0,0,0-1.09.86,4,4,0,0,0-.7,1.21,6,6,0,0,0-.33,1.4Z" transform="translate(-22.81 -7.4)"/>
    <path class="cls-1" d="M405.63,14.54q.84-.21,2.24-.45a19.39,19.39,0,0,1,3.21-.24,6.94,6.94,0,0,1,2.71.46,4.24,4.24,0,0,1,1.72,1.29,5,5,0,0,1,.91,2,11.52,11.52,0,0,1,.26,2.55v7.69h-2.45V20.67a11.67,11.67,0,0,0-.17-2.16,3.66,3.66,0,0,0-.57-1.45,2.25,2.25,0,0,0-1.05-.8,4.62,4.62,0,0,0-1.63-.25L410,16l-.8.07-.68.09-.43.08V27.83h-2.45Z" transform="translate(-22.81 -7.4)"/>
    <path class="cls-1" d="M423,14.14h5.19v2.05H423v6.32a7.58,7.58,0,0,0,.16,1.7,2.56,2.56,0,0,0,.47,1.05,1.71,1.71,0,0,0,.79.54,3.5,3.5,0,0,0,1.11.16,5.19,5.19,0,0,0,1.78-.25l.93-.36.47,2a9,9,0,0,1-1.29.46,7.34,7.34,0,0,1-2.11.28,6.39,6.39,0,0,1-2.3-.36,3.36,3.36,0,0,1-1.46-1.07,4.28,4.28,0,0,1-.78-1.75,11.53,11.53,0,0,1-.22-2.41V10.32L423,9.9Z" transform="translate(-22.81 -7.4)"/>
      <!-- Edited by George Afrah (Hassan TufaH) -->
    <path class="cls-1" d="M430.3,21a8.73,8.73,0,0,1,.53-3.17,6.62,6.62,0,0,1,1.4-2.25,5.67,5.67,0,0,1,2-1.34,6.25,6.25,0,0,1,2.32-.45,5.27,5.27,0,0,1,4.24,1.72,7.93,7.93,0,0,1,1.47,5.25v.41a3.92,3.92,0,0,1,0,.46h-9.37a5,5,0,0,0,1.24,3.24A4.53,4.53,0,0,0,437.46,26a9,9,0,0,0,2.17-.22,7.77,7.77,0,0,0,1.33-.43l.34,2.05a7.25,7.25,0,0,1-1.57.5,11.15,11.15,0,0,1-2.54.26,8.06,8.06,0,0,1-3.09-.54A5.77,5.77,0,0,1,432,26.12a6.06,6.06,0,0,1-1.25-2.25A9.51,9.51,0,0,1,430.3,21Zm9.4-1.34a4.11,4.11,0,0,0-.83-2.72,2.85,2.85,0,0,0-2.36-1.07,3.23,3.23,0,0,0-1.49.33,3.53,3.53,0,0,0-1.09.86,4,4,0,0,0-.7,1.21,6,6,0,0,0-.33,1.4Z" transform="translate(-22.81 -7.4)"/>
  </g>
</svg>
