<?xml version="1.0" encoding="utf-8"?>
<!-- edit by George.Afrah and Hylda.Negri -->
<svg version="1.1" id="Livello_1" xmlns="http://www.w3.org/2000/svg" xmlns:xlink="http://www.w3.org/1999/xlink" x="0px" y="0px"
	 width="25px" height="25px" viewBox="0 0 25 25" style="enable-background:new 0 0 25 25;" xml:space="preserve">
<style type="text/css">
	.st0{fill:#1D5DA9;}
</style>
<g>
	<path class="st0" d="M19.9,14.3c0-0.1,0-0.1,0-0.2c-0.1-0.5-0.3-0.9-0.9-1.1c-0.5-0.2-1-0.1-1.4,0.4c0,0,0,0.1-0.1,0.1
		c0,0,0,0-0.1,0c0.1-0.7-0.1-1.4-0.8-1.7c-0.7-0.3-1.4-0.1-1.9,0.6c0.1-0.9-0.2-1.7-1.2-1.9c-0.8-0.2-1.3,0.2-1.7,0.8
		c0-0.1,0-0.1,0-0.2c0-1.6,0-3.2,0-4.8c0-0.4-0.1-0.7-0.4-1.1c-0.5-0.7-1.5-0.7-2.1,0C9.1,5.5,9,5.9,9,6.3c0,2.9,0,5.7,0,8.6
		c0,0,0,0.1,0,0.2c-0.2-0.4-0.3-0.8-0.4-1.2c-0.2-0.6-0.5-1.1-1-1.5c-0.3-0.2-0.6-0.4-1-0.5c-0.6-0.1-1,0.2-1,0.7
		c0,0.2,0,0.5,0.1,0.7c0.3,1.2,0.6,2.4,1,3.6C7,18.2,7.4,19.3,8,20.4c0.5,0.9,1.1,1.8,2,2.4c1.6,1.1,3.3,1.4,5.2,1
		c1.3-0.2,2.5-0.8,3.4-1.9c0.9-1,1.2-2.2,1.3-3.5C19.9,17.1,19.9,15.7,19.9,14.3z"/>
</g>
<g>
	<path class="st0" d="M10.3,2.9c1.7,0,3.2,1.4,3.2,3.2c0,0.8-0.3,1.6-0.9,2.1c0,0.2,0,0.5,0,0.7C13.5,8.2,14,7.2,14,6.1
		c0-2-1.7-3.7-3.7-3.7S6.7,4,6.7,6.1c0,1.3,0.6,2.4,1.6,3c0-0.2,0-0.4,0-0.7C7.6,7.8,7.2,7,7.2,6.1C7.2,4.3,8.6,2.9,10.3,2.9z"/>
</g>
<g>
	<path class="st0" d="M10.3,1c2.8,0,5.1,2.3,5.1,5.1c0,1.6-0.8,3.1-2,4c0.2,0,0.4,0.1,0.6,0.2c1.2-1,1.9-2.5,1.9-4.2
		c0-3.1-2.5-5.6-5.6-5.6C7.2,0.5,4.7,3,4.7,6c0,2.4,1.5,4.4,3.6,5.2c0-0.2,0-0.4,0-0.6C6.5,9.9,5.2,8.1,5.2,6C5.2,3.2,7.5,1,10.3,1z
		"/>
</g>
<g>
</g>
<g>
</g>
<g>
</g>
<g>
</g>
<g>
</g>
<g>
</g>
</svg>
