<svg id="Livello_1" data-name="Livello 1" xmlns="http://www.w3.org/2000/svg" width="495" height="91.8" viewBox="0 0 495 91.8">
  <defs>
    <style>
      .cls-1 {
        fill: #044d9a;
      }
    </style>
  </defs>
  <g>
    <path class="cls-1" d="M82,89.74v3C70.39,92.74,58.74,94,47,94.37V83c-4.64,8-9.9,11.65-19.29,11.65C10.65,94.62,2,79,2,63.56c0-15.78,8.27-31.81,25.93-31.81,7.39,0,13.15,3.38,17.53,9.27V9H35.32V6C48.72,6,62,4.44,75.4,4.07V89.74ZM45.46,52.91c0-8.51-2.75-13.52-7-13.52-4.76,0-4.51,5.76-4.51,13.52V72.45c0,11.77,1.5,14.78,4.64,14.78,4,0,6.88-5.51,6.88-14.78Z" transform="translate(-2 -2.82)"/>
    <path class="cls-1" d="M85.29,92.74v-3h6.89V36.51H85.54v-3c12.53,0,24.93-1.13,37.45-1.5V89.74h6.64v3Zm38.83-77.52c0,9.26-9,12.27-16.78,12.27s-16.79-3-16.79-12.27c0-9.9,8.65-12.4,16.79-12.4S124.12,5.32,124.12,15.22Z" transform="translate(-2 -2.82)"/>
    <path class="cls-1" d="M134,36.51v-3c12,0,24.17-1.13,36.19-1.5V44.65h.25c4.13-7.64,11.27-12.4,20.17-12.4,8.26,0,16.15,4.88,16.15,13.9,0,8.64-6,14.65-14.65,14.65-8.27,0-14-5.38-14-13.77a23.78,23.78,0,0,1,.75-5.89c-1.88-3.13-5.63,4-6,5.26-1.75,4.89-1.38,9.39-1.38,14.53V89.74h8.9v3H134v-3h6.63V36.51Z" transform="translate(-2 -2.82)"/>
    <path class="cls-1" d="M239.87,67.07v5.26c0,10,1.88,17.91,13.53,17.91,9.27,0,17.66-5.89,22.92-13.15l2.38,1.62c-7.52,10.9-18,15.91-31.56,15.91-7.27,0-13.78-.5-20.54-3.38C216,86.73,208.31,78,208.31,63.18c0-20,16.53-31.43,35.44-31.43,21.67,0,36.7,13.15,36.45,35.32Zm10.77-3V46.78c0-4.39,1-12-5.63-12-5.77,0-5.14,8.14-5.14,12V64.06Z" transform="translate(-2 -2.82)"/>
    <path class="cls-1" d="M356.48,76c-6.14,14-18.67,18.66-33.19,18.66-22.67,0-38.2-11.77-38.2-31.19,0-21.66,20.29-31.68,39.57-31.68C349,31.75,356.1,42.14,356.1,52c0,8.39-5.89,13.9-14.15,13.9-7.27,0-13.4-5.39-13.4-12.78,0-6.88,3.63-10.14,9.26-12.9.5-.25,2-.87,2-1.62,0-2.51-6.26-3.39-7.89-3.39-10.52,0-15.53,2.51-13.9,34,.5,9.89,1.5,20.54,14.27,20.54,10.15,0,17.16-6.52,21.3-15.28Z" transform="translate(-2 -2.82)"/>
    <path class="cls-1" d="M397.93,11.46v22h14.16v3H397.93V80.72c0,2.75-.25,6.38,3.51,6.38,6.39,0,8.89-10.26,9.52-15.15h2.75c-1.25,17.53-11.39,22.67-27.55,22.67-15.15,0-18.91-4.26-18.91-20.54V36.51h-7.39v-3c15.53,0,27.8-9.27,35.69-22Z" transform="translate(-2 -2.82)"/>
    <path class="cls-1" d="M460.43,42.77c0-5.64-1.38-7.64-7.14-7.64-2.25,0-5,.25-5,1.38,0,1.62,4.64,3.13,4.64,8.76,0,8.65-10,10-16.66,10-6.14,0-13.78-2.5-13.78-9.89,0-5.51,3.13-13.65,31.19-13.65,6.26,0,16.53.87,22.54,2.38,8.27,1.88,13.53,5.51,13.53,14.9V82.6c0,1.37.5,3,2.13,3,2.38,0,3.63-1.75,5.13-3.25v4.38c-4.76,5.51-12.52,7.89-19.54,7.89S464.69,93,461.43,86c-6.26,6.89-15.4,8.64-24.29,8.64-9.52,0-19.54-4.13-19.54-15.28,0-8.27,4.38-16.78,21.92-19.16a96.72,96.72,0,0,1,14.77-1h6.14Zm0,19.41h-4.51c-7.76,0-6.76,8.89-6.76,14.66,0,3.63-.25,10.39,4.76,10.39,6.89,0,6.51-7.89,6.51-12.52Z" transform="translate(-2 -2.82)"/>
  </g>
</svg>
