<svg id="Livello_1" data-name="Livello 1" xmlns="http://www.w3.org/2000/svg" viewBox="0 0 828.65 240.47">
  <defs>
    <style>
      .cls-1 {
        fill: #044d9a;
      }
    </style>
  </defs>
  <title>logo Directa Sim|Modulo di adesione</title>
  <g>
    <path class="cls-1" d="M167.82,192.53v5c-19.5,0-39,2.1-58.71,2.73V181.21c-7.76,13.42-16.56,19.5-32.29,19.5-28.52,0-43-26.21-43-52,0-26.42,13.84-53.26,43.4-53.26,12.37,0,22,5.66,29.35,15.52V57.29h-17v-5c22.43,0,44.66-2.52,67.09-3.15V192.53ZM106.6,130.89c0-14.26-4.61-22.64-11.74-22.64-8,0-7.55,9.65-7.55,22.64v32.71c0,19.71,2.52,24.74,7.76,24.74,6.71,0,11.53-9.23,11.53-24.74Z" transform="translate(-33.84 -47.02)"/>
    <path class="cls-1" d="M173.27,197.56v-5h11.53V103.42H173.69v-5c21,0,41.72-1.89,62.69-2.52v96.66H247.5v5Zm65-129.79c0,15.52-15.1,20.55-28.1,20.55s-28.1-5-28.1-20.55c0-16.56,14.47-20.76,28.1-20.76S238.27,51.21,238.27,67.78Z" transform="translate(-33.84 -47.02)"/>
    <path class="cls-1" d="M254.83,103.42v-5c20.13,0,40.47-1.89,60.59-2.52V117h.42c6.92-12.79,18.87-20.76,33.76-20.76,13.84,0,27,8.18,27,23.27,0,14.47-10.06,24.53-24.53,24.53-13.84,0-23.48-9-23.48-23.06a39.71,39.71,0,0,1,1.26-9.85c-3.15-5.24-9.44,6.71-10.06,8.81-2.94,8.18-2.31,15.73-2.31,24.32v48.22h14.89v5H254.83v-5h11.11V103.42Z" transform="translate(-33.84 -47.02)"/>
    <path class="cls-1" d="M432,154.58v8.81c0,16.77,3.15,30,22.64,30,15.52,0,29.56-9.85,38.37-22l4,2.73c-12.58,18.24-30.19,26.63-52.84,26.63-12.16,0-23.06-.84-34.39-5.66-17.82-7.55-30.61-22.23-30.61-47,0-33.55,27.68-52.63,59.34-52.63,36.27,0,61.43,22,61,59.13Zm18-5V120.61c0-7.34,1.68-20.13-9.44-20.13-9.65,0-8.6,13.63-8.6,20.13v28.93Z" transform="translate(-33.84 -47.02)"/>
    <path class="cls-1" d="M627.24,169.47C617,192.95,596,200.71,571.68,200.71c-38,0-64-19.71-64-52.21,0-36.27,34-53,66.26-53,40.68,0,52.63,17.4,52.63,34,0,14-9.85,23.27-23.69,23.27-12.16,0-22.43-9-22.43-21.39,0-11.53,6.08-17,15.52-21.6.84-.42,3.36-1.47,3.36-2.73,0-4.19-10.48-5.66-13.21-5.66-17.61,0-26,4.19-23.27,56.82.84,16.56,2.52,34.39,23.9,34.39,17,0,28.73-10.9,35.64-25.58Z" transform="translate(-33.84 -47.02)"/>
    <path class="cls-1" d="M696.64,61.48v36.9h23.69v5H696.64v74c0,4.61-.42,10.69,5.87,10.69,10.69,0,14.89-17.19,15.93-25.37h4.61c-2.1,29.35-19.08,38-46.13,38-25.37,0-31.66-7.13-31.66-34.39v-62.9H632.9v-5c26,0,46.55-15.52,59.76-36.9Z" transform="translate(-33.84 -47.02)"/>
    <path class="cls-1" d="M801.27,113.9c0-9.44-2.31-12.79-12-12.79-3.77,0-8.39.42-8.39,2.31,0,2.73,7.76,5.24,7.76,14.68,0,14.47-16.77,16.77-27.89,16.77-10.27,0-23.06-4.19-23.06-16.56,0-9.23,5.24-22.85,52.21-22.85,10.48,0,27.68,1.47,37.74,4,13.84,3.15,22.64,9.23,22.64,25v56.19c0,2.31.84,5,3.56,5,4,0,6.08-2.94,8.6-5.45v7.34c-8,9.23-21,13.21-32.71,13.21-12,0-21.39-2.73-26.84-14.47-10.48,11.53-25.79,14.47-40.68,14.47-15.93,0-32.71-6.92-32.71-25.58,0-13.84,7.34-28.1,36.69-32.08A161.76,161.76,0,0,1,791,141.37h10.27Zm0,32.5h-7.55c-13,0-11.32,14.89-11.32,24.53,0,6.08-.42,17.4,8,17.4,11.53,0,10.9-13.21,10.9-21Z" transform="translate(-33.84 -47.02)"/>
  </g>
  <g>
    <path class="cls-1" d="M65.72,241.58H55.16v20.51a8,8,0,0,0,1,4.59q1,1.46,4,1.46A16.22,16.22,0,0,0,63,267.9a18.77,18.77,0,0,0,2.43-.57v6.26A17.74,17.74,0,0,1,61,274.66,38.25,38.25,0,0,1,56,275a11.14,11.14,0,0,1-8.69-3.53q-3.2-3.53-3.2-10.13V241.51H39.31v-5.7l5.18-.28,3.72-13.31h7v13.24H65.72Z" transform="translate(-33.84 -47.02)"/>
    <path class="cls-1" d="M102.88,246.82H92.62a5.68,5.68,0,0,0-.71-2.92,3,3,0,0,0-2.8-1.22A5.41,5.41,0,0,0,84,246.06v28.6H72.92v-40H83.59l.21,6.33a13.36,13.36,0,0,1,4-5.27,9.5,9.5,0,0,1,5.86-1.86q5,0,7.52,3.32T102.88,246.82Z" transform="translate(-33.84 -47.02)"/>
    <path class="cls-1" d="M141.45,274.66H131.06l-.21-5.21a9.75,9.75,0,0,1-4.31,4.1,14.87,14.87,0,0,1-7.06,1.6q-6.64,0-10-3.34T106,261.7V261q0-6.71,4.55-10.34T122.82,247a15.87,15.87,0,0,1,4.59.68,8.1,8.1,0,0,1,3.3,1.69v-3.93a4.24,4.24,0,0,0-1.88-3.48,8.65,8.65,0,0,0-5.32-1.42,24.13,24.13,0,0,0-6.57.82,22.15,22.15,0,0,0-5,2v-6.85a42.35,42.35,0,0,1,6.13-1.91,36.4,36.4,0,0,1,8.22-.8q7.75,0,11.45,3.49t3.7,11.17Zm-10.67-13.38v-1.08a8,8,0,0,0-1.7-5.51,6.43,6.43,0,0,0-5-1.89,6.77,6.77,0,0,0-5,1.79q-1.82,1.79-1.82,5.68v1.08q0,4.07,1.93,5.42a8.36,8.36,0,0,0,4.92,1.36,7.18,7.18,0,0,0,4.62-1.65Q130.78,264.83,130.78,261.28Z" transform="translate(-33.84 -47.02)"/>
    <path class="cls-1" d="M186.25,274.66H175.58l-.28-5.49a16.13,16.13,0,0,1-5.11,4.67,13.85,13.85,0,0,1-6.5,1.37,13.63,13.63,0,0,1-10-3.94q-4-3.94-4-13.78v-4.17q0-9,4.28-14.09t12.62-5.06a19.61,19.61,0,0,1,4.43.56,8.43,8.43,0,0,1,4.12,2.29V222.22h11.09Zm-11.09-11.33V243.42a6.62,6.62,0,0,0-2.33-2.38,7.52,7.52,0,0,0-4-1,6.46,6.46,0,0,0-5.54,2.92q-2.07,2.92-2.07,10.67v2.78q0,6.19,1.63,8.71a5.62,5.62,0,0,0,5.07,2.52,7.92,7.92,0,0,0,4.33-1.27A8.07,8.07,0,0,0,175.17,263.33Z" transform="translate(-33.84 -47.02)"/>
    <path class="cls-1" d="M207.73,225.76A5.71,5.71,0,0,1,206,230a6,6,0,1,1,1.7-4.21Zm-.31,48.9H196.33v-40h11.09Z" transform="translate(-33.84 -47.02)"/>
    <path class="cls-1" d="M252.4,274.66H241.31v-28A4.11,4.11,0,0,0,240,243.7a5.16,5.16,0,0,0-3.84-1.36,8.59,8.59,0,0,0-4.22,1,10.64,10.64,0,0,0-3.11,2.57v28.74H217.71v-40h10.67l.21,6.4a11.4,11.4,0,0,1,4.67-5,15.5,15.5,0,0,1,8.42-2.17,10.1,10.1,0,0,1,7.86,3.15q2.86,3.15,2.86,9.61Z" transform="translate(-33.84 -47.02)"/>
    <path class="cls-1" d="M298.62,269.17q0,8.55-5.53,13.43t-15.19,4.88a44.66,44.66,0,0,1-6.62-.57,23.06,23.06,0,0,1-6.69-2v-7.68a24.36,24.36,0,0,0,6.29,1.88,37.52,37.52,0,0,0,5.73.52q6.67,0,9.07-2.28a7.84,7.84,0,0,0,2.4-6v-3.93a12.57,12.57,0,0,1-3.93,4.4q-3,2.31-8.69,2.31A13.29,13.29,0,0,1,265,269.73q-4-4.45-4-14.77v-1.15q0-9.91,4.52-14.77t12.51-4.87a16.89,16.89,0,0,1,5.84,1,9.41,9.41,0,0,1,4.27,3v-3.48h10.39ZM287.5,253.74v-2.5q0-6-1.7-8.43t-5.49-2.45a6.64,6.64,0,0,0-5.68,2.85q-2.07,2.85-2.07,9.45v1.08q0,7.54,1.89,10.18a6.42,6.42,0,0,0,5.58,2.64,6.24,6.24,0,0,0,5.56-2.92Q287.5,260.73,287.5,253.74Z" transform="translate(-33.84 -47.02)"/>
    <path class="cls-1" d="M365.42,255.86q0,9.28-5.34,14.48t-14.65,5.2q-9.25,0-14.7-5.32t-5.46-14.35v-2.54q0-8.83,5.39-14.25t14.7-5.42q9.38,0,14.72,5.46t5.34,14.21Zm-11.43-1v-.59q0-8.1-2.5-11.05a7.73,7.73,0,0,0-6.12-3,7.38,7.38,0,0,0-6.17,3.16q-2.38,3.16-2.38,10.84v.59q0,8.45,2.31,11.23a7.69,7.69,0,0,0,6.24,2.78,8,8,0,0,0,6.08-2.71Q354,263.47,354,254.89Z" transform="translate(-33.84 -47.02)"/>
    <path class="cls-1" d="M408.9,274.66H397.81v-28a4.11,4.11,0,0,0-1.34-2.92,5.16,5.16,0,0,0-3.84-1.36,8.59,8.59,0,0,0-4.22,1,10.64,10.64,0,0,0-3.11,2.57v28.74H374.21v-40h10.67l.21,6.4a11.4,11.4,0,0,1,4.67-5,15.5,15.5,0,0,1,8.42-2.17A10.1,10.1,0,0,1,406,237q2.86,3.15,2.86,9.61Z" transform="translate(-33.84 -47.02)"/>
    <path class="cls-1" d="M432.06,274.66H421V222.22h11.09Z" transform="translate(-33.84 -47.02)"/>
    <path class="cls-1" d="M454,225.76a5.72,5.72,0,0,1-1.7,4.21,6,6,0,1,1,1.7-4.21Zm-.31,48.9H442.59v-40h11.09Z" transform="translate(-33.84 -47.02)"/>
    <path class="cls-1" d="M498.65,274.66H487.56v-28a4.11,4.11,0,0,0-1.34-2.92,5.16,5.16,0,0,0-3.84-1.36,8.59,8.59,0,0,0-4.22,1,10.64,10.64,0,0,0-3.11,2.57v28.74H464v-40h10.67l.21,6.4a11.39,11.39,0,0,1,4.67-5,15.5,15.5,0,0,1,8.42-2.17,10.1,10.1,0,0,1,7.86,3.15q2.86,3.15,2.86,9.61Z" transform="translate(-33.84 -47.02)"/>
    <path class="cls-1" d="M545.71,256.8H518.53q0,6.67,3,9.28a11.61,11.61,0,0,0,7.85,2.61,27.63,27.63,0,0,0,6.55-.82,38,38,0,0,0,6.9-2.45v6.67a26,26,0,0,1-6.76,2.57,37.6,37.6,0,0,1-8.53.87q-9.25,0-14.74-4.92t-5.49-14.37v-2.85a20.51,20.51,0,0,1,5-14q5-5.74,14.58-5.73,9.11,0,13.94,5.39t4.83,14Zm-10.32-5.7q-.35-5.91-2.59-8.46a7.42,7.42,0,0,0-5.86-2.55,7.73,7.73,0,0,0-5.65,2.52q-2.49,2.52-2.69,8.5Z" transform="translate(-33.84 -47.02)"/>
    <path class="cls-1" d="M606.88,274.66H596.21l-.28-5.49a16.12,16.12,0,0,1-5.11,4.67,13.85,13.85,0,0,1-6.5,1.37,13.63,13.63,0,0,1-10-3.94q-4-3.94-4-13.78v-4.17q0-9,4.27-14.09t12.62-5.06a19.61,19.61,0,0,1,4.43.56,8.42,8.42,0,0,1,4.12,2.29V222.22h11.09Zm-11.09-11.33V243.42a6.63,6.63,0,0,0-2.33-2.38,7.52,7.52,0,0,0-4-1,6.47,6.47,0,0,0-5.54,2.92q-2.07,2.92-2.07,10.67v2.78q0,6.19,1.63,8.71a5.62,5.62,0,0,0,5.07,2.52,7.92,7.92,0,0,0,4.33-1.27A8.07,8.07,0,0,0,595.79,263.33Z" transform="translate(-33.84 -47.02)"/>
    <path class="cls-1" d="M650.22,274.66H639.83l-.21-5.21a9.75,9.75,0,0,1-4.31,4.1,14.87,14.87,0,0,1-7.06,1.6q-6.64,0-10-3.34t-3.41-10.11V261q0-6.71,4.55-10.34T631.59,247a15.87,15.87,0,0,1,4.59.68,8.09,8.09,0,0,1,3.3,1.69v-3.93a4.24,4.24,0,0,0-1.88-3.48,8.64,8.64,0,0,0-5.32-1.42,24.13,24.13,0,0,0-6.57.82,22.13,22.13,0,0,0-5,2v-6.85a42.35,42.35,0,0,1,6.13-1.91,36.39,36.39,0,0,1,8.22-.8q7.75,0,11.45,3.49t3.7,11.17Zm-10.67-13.38v-1.08a8,8,0,0,0-1.7-5.51,6.43,6.43,0,0,0-5-1.89,6.77,6.77,0,0,0-5,1.79q-1.83,1.79-1.82,5.68v1.08q0,4.07,1.93,5.42a8.35,8.35,0,0,0,4.92,1.36,7.18,7.18,0,0,0,4.62-1.65Q639.55,264.83,639.55,261.28Z" transform="translate(-33.84 -47.02)"/>
    <path class="cls-1" d="M671.53,274.66H660.44V222.22h11.09Z" transform="translate(-33.84 -47.02)"/>
    <path class="cls-1" d="M723.83,274.66H713.09V234.73h-7.33V228.4q5-.42,7.61-2.68a17.83,17.83,0,0,0,3.41-3.51h7.06Z" transform="translate(-33.84 -47.02)"/>
    <path class="cls-1" d="M776.07,246.81q-.66,13-6.31,20.76t-16.39,7.79a28.83,28.83,0,0,1-4.88-.36q-2.1-.37-3.88-.71v-9.07q2.36.56,4.54.92a25.44,25.44,0,0,0,4.22.36q5,0,7.75-3.22t2.92-8.77a8.73,8.73,0,0,1-4.1,3.2,13.92,13.92,0,0,1-5.8,1.42q-8.1,0-12.56-4.71T737.11,241q0-9,5-14.3t14.08-5.32q9.66,0,14.44,5.09t5.4,15.7q.07,1,.05,2.57T776.07,246.81Zm-11.43-6.52q0-5.79-2.1-8.28a7.21,7.21,0,0,0-5.82-2.49A7.08,7.08,0,0,0,751,232q-2.08,2.46-2.08,8.32,0,5.58,2.08,8.21a6.88,6.88,0,0,0,5.7,2.63,7.3,7.3,0,0,0,5.56-2.6Q764.64,245.94,764.64,240.29Z" transform="translate(-33.84 -47.02)"/>
      ><!-- Edited by George Afrah HT: -->
    <path class="cls-1" d="M817.36,246.81q-.66,13-6.31,20.76t-16.39,7.79a28.83,28.83,0,0,1-4.88-.36q-2.1-.37-3.88-.71v-9.07q2.36.56,4.54.92a25.44,25.44,0,0,0,4.22.36q5,0,7.75-3.22t2.92-8.77a8.73,8.73,0,0,1-4.1,3.2,13.92,13.92,0,0,1-5.8,1.42q-8.1,0-12.56-4.71T778.4,241q0-9,5-14.3t14.08-5.32q9.66,0,14.44,5.09t5.4,15.7q.07,1,.05,2.57T817.36,246.81Zm-11.43-6.52q0-5.79-2.1-8.28a7.21,7.21,0,0,0-5.82-2.49,7.08,7.08,0,0,0-5.7,2.46q-2.08,2.46-2.08,8.32,0,5.58,2.08,8.21a6.88,6.88,0,0,0,5.7,2.63,7.3,7.3,0,0,0,5.56-2.6Q805.93,245.94,805.93,240.29Z" transform="translate(-33.84 -47.02)"/>
    <path class="cls-1" d="M859.21,255.93q0,9-5.09,14.28T840,275.53q-9.66,0-14.44-5.09t-5.4-15.69q-.07-1,0-2.57t0-2q.63-12.58,6.39-20.56t16.3-8a28.84,28.84,0,0,1,4.88.36q2.1.36,3.87.71v9.07q-2.36-.56-4.54-.92a25.43,25.43,0,0,0-4.22-.36,9.17,9.17,0,0,0-7.54,3.24,15.72,15.72,0,0,0-3.13,8.75,8.73,8.73,0,0,1,4.1-3.2,13.92,13.92,0,0,1,5.8-1.43q8.1,0,12.62,4.71T859.21,255.93Zm-11.82.87q0-5.56-2.14-8.18A7,7,0,0,0,839.5,246a7.3,7.3,0,0,0-5.56,2.59q-2.36,2.59-2.36,8.22t2.1,8.25a8,8,0,0,0,11.57,0Q847.39,262.64,847.39,256.8Z" transform="translate(-33.84 -47.02)"/>
  </g>
</svg>
