<?xml version="1.0" encoding="utf-8"?>
<!-- edit by George.Afrah and Hylda.Negri -->
<svg version="1.1" id="Livello_1" xmlns="http://www.w3.org/2000/svg" xmlns:xlink="http://www.w3.org/1999/xlink" x="0px" y="0px"
	 width="25px" height="25px" viewBox="0 0 25 25" style="enable-background:new 0 0 25 25;" xml:space="preserve">
<style type="text/css">
	.st0{fill:#1D5DA9;}
</style>
<path class="st0" d="M11.1,4H9.5C9.4,4,9.3,3.9,9.3,3.8v0c0-0.1,0.1-0.2,0.2-0.2h1.6c0.1,0,0.2,0.1,0.2,0.2v0
	C11.3,3.9,11.2,4,11.1,4z"/>
<path class="st0" d="M16.6,0.6c-2.8,0-5.7,0-8.5,0c-1,0-1.6,0.6-1.6,1.6c0,3.4,0,6.7,0,10.1c0,3.4,0,6.8,0,10.2c0,1,0.6,1.6,1.6,1.6
	c2.9,0,5.7,0,8.6,0c1,0,1.6-0.6,1.6-1.6c0-6.8,0-13.6,0-20.3C18.2,1.2,17.6,0.6,16.6,0.6z M11.3,2.9h1.9c0.1,0,0.2,0.1,0.2,0.2
	c0,0.1-0.1,0.2-0.2,0.2h-1.9c-0.1,0-0.2-0.1-0.2-0.2C11.1,2.9,11.2,2.9,11.3,2.9z M10.7,2.8c0.1,0,0.2,0.1,0.2,0.2s-0.1,0.2-0.2,0.2
	c-0.1,0-0.2-0.1-0.2-0.2S10.6,2.8,10.7,2.8z M12.3,23.1c-0.6,0-1-0.4-1-1c0-0.5,0.4-1,1-1c0.6,0,1,0.4,1,1
	C13.3,22.7,12.9,23.1,12.3,23.1z M17.2,20.2c-3.3,0-6.5,0-9.8,0c0-5.2,0-10.4,0-15.6c3.3,0,6.5,0,9.8,0C17.2,9.8,17.2,15,17.2,20.2z
	"/>
<g>
</g>
<g>
</g>
<g>
</g>
<g>
</g>
<g>
</g>
<g>
</g>
</svg>
